<svg clip-rule="evenodd" fill-rule="evenodd" height="512" image-rendering="optimizeQuality" shape-rendering="geometricPrecision" text-rendering="geometricPrecision" viewBox="0 0 173.397 173.397" width="512" xmlns="http://www.w3.org/2000/svg"><g id="Layer_x0020_1"><g id="_535269200"><path id="_535269440" d="m19.1453 22.2792c-3.6946 0-6.7004 3.004-6.7004 6.7011v89.3162c0 3.6938 3.0058 6.698 6.7004 6.698h135.107c3.6945 0 6.7004-3.004 6.7004-6.6979v-89.3165c0-3.6969-3.0059-6.7009-6.7005-6.7009h-135.107zm135.107 106.279h-135.107c-5.6597 0-10.2643-4.6034-10.2643-10.2619v-89.3165c0-5.6614 4.6046-10.2649 10.2643-10.2649h135.107c5.6596 0 10.2644 4.6036 10.2644 10.2651v89.3162c0 5.6586-4.6048 10.262-10.2644 10.262z"/><path id="_535269728" d="m51.4258 151.118h70.5457l-18.4436-22.5595h-33.6584zm74.3042 3.564h-78.0628c-.6884 0-1.3155-.396-1.6103-1.0178-.2951-.6219-.2052-1.3581.2305-1.8933l21.3573-26.1205c.3388-.4147.845-.6559 1.3798-.6559h35.3482c.5349 0 1.041.2413 1.3798.6559l21.3574 26.1203c.4355.5353.5256 1.2717.2304 1.8935-.2948.6217-.922 1.0178-1.6103 1.0178z"/><path id="_535270064" d="m162.734 40.8323h-152.071c-.9842 0-1.782-.7981-1.782-1.7819 0-.987.7978-1.782 1.782-1.782l152.071-.0001c.9841 0 1.782.7951 1.782 1.7821 0 .9837-.798 1.782-1.782 1.7819z"/><path id="_535270040" d="m33.9131 31.5728h-9.7326c-.9842 0-1.7819-.7982-1.7819-1.782s.7977-1.7819 1.7819-1.7819l9.7326-.0001c.9842 0 1.7819.7982 1.7819 1.782 0 .9837-.7978 1.782-1.7819 1.782z"/><path id="_535269800" d="m52.5333 31.5728h-9.7325c-.9842 0-1.782-.7982-1.782-1.782s.7978-1.7819 1.782-1.7819l9.7325-.0001c.9842 0 1.7817.7982 1.7817 1.782.0001.9837-.7975 1.782-1.7817 1.782z"/><path id="_535269104" d="m71.1537 31.5728h-9.7327c-.9841 0-1.782-.7982-1.782-1.782s.7979-1.7819 1.782-1.7819l9.7327-.0001c.984 0 1.7816.7982 1.7816 1.782 0 .9837-.7976 1.782-1.7816 1.782z"/><path id="_535269152" d="m23.5969 80.3889h29.858v-29.8578h-29.858zm31.64 3.564h-33.4219c-.9842 0-1.7819-.7981-1.7819-1.7819v-33.4219c0-.9868.7977-1.7818 1.7819-1.7818l33.4219-.0002c.9842 0 1.782.7952 1.782 1.7822v33.4216c0 .9838-.7978 1.7821-1.782 1.782z"/><path id="_535268984" d="m151.582 50.5311h-84.2813c-.9841 0-1.7817-.798-1.7817-1.7818.0001-.987.7976-1.782 1.7817-1.782l84.2813-.0002c.9841 0 1.782.7952 1.782 1.7822 0 .9838-.7979 1.782-1.782 1.7818z"/><path id="_535268792" d="m151.582 61.6811h-84.2813c-.9841 0-1.7817-.7982-1.7817-1.782.0001-.9839.7976-1.782 1.7817-1.782l84.2813-.0002c.9841 0 1.782.7984 1.782 1.7822s-.7979 1.782-1.782 1.782z"/><path id="_535269272" d="m151.582 72.8h-84.2813c-.9841 0-1.7817-.7981-1.7817-1.782.0001-.9838.7976-1.782 1.7817-1.782h84.2813c.9841 0 1.782.7982 1.782 1.782s-.7979 1.782-1.782 1.782z"/><path id="_535268720" d="m151.582 83.9529h-84.2813c-.9841 0-1.7817-.7981-1.7817-1.7819.0001-.984.7976-1.782 1.7817-1.782l84.2813-.0001c.9841 0 1.782.7982 1.782 1.7821 0 .9837-.7979 1.782-1.782 1.7819z"/><path id="_535268888" d="m23.5969 115.296h67.2335v-20.4281h-67.2335zm69.0155 3.5639h-70.7974c-.9842 0-1.7821-.7982-1.7821-1.7819l.0001-23.9921c0-.9839.7978-1.7819 1.782-1.7819l70.7974-.0001c.9842 0 1.782.7982 1.782 1.7821v23.992c0 .9837-.7978 1.7819-1.782 1.7819z"/><path id="_535268864" d="m107.54 115.296h42.2263v-20.4281h-42.2263zm44.0083 3.5639h-45.7901c-.9845 0-1.7823-.7982-1.7823-1.7819l.0001-23.9921c0-.9839.7977-1.7819 1.7821-1.7819l45.7902-.0001c.9842 0 1.782.7982 1.782 1.7821v23.992c0 .9837-.7979 1.7819-1.782 1.7819z"/></g></g></svg>