<?xml version="1.0"?>
<svg xmlns="http://www.w3.org/2000/svg" viewBox="0 0 64 64" width="512" height="512"><g id="_7-j-flag" data-name="7-j-flag"><path d="M53,8a1,1,0,0,0,1-1V3a1,1,0,0,0-1-1H27V1a1,1,0,0,0-1-1H22a1,1,0,0,0-1,1V58H13a3.00328,3.00328,0,0,0-3,3v2a1,1,0,0,0,1,1H37a1,1,0,0,0,1-1V61a3.00328,3.00328,0,0,0-3-3H27V52H53a1,1,0,0,0,1-1V47a1,1,0,0,0-1-1H52V8ZM28,4H52V6H28Zm8,57v1H12V61a1.0013,1.0013,0,0,1,1-1H35A1.0013,1.0013,0,0,1,36,61ZM23,58V2h2V58Zm29-8H28V48H52Zm-2-4H28V8H50Z"/><path d="M31.05035,26.24939a.99591.99591,0,0,0,.05.17212,2.32587,2.32587,0,0,0,.23169.312c.01129.01032.01593.02466.02777.03455a.93485.93485,0,0,0,.11866.06414.7066.7066,0,0,0,.38861.14093A.943.943,0,0,0,32,27H46a1,1,0,0,0,1-1V12a1,1,0,0,0-1-1H32a1,1,0,0,0-1,1V26c0,.01569.00818.02869.00891.04419A.98081.98081,0,0,0,31.05035,26.24939ZM39.86511,25H34.13489L37,21.562Zm2.60309,0L41.08,23.33411l1.92-1.92,2,2V25ZM40,13h5v7.58594l-1.293-1.293a.99962.99962,0,0,0-1.41406,0L39.79443,21.7915l-2.02636-2.43164a1.0334,1.0334,0,0,0-1.53614,0L33,23.23816V13Z"/><path d="M37,16a3,3,0,1,0,3-3A3.00328,3.00328,0,0,0,37,16Zm3-1a1,1,0,1,1-1,1A1.0013,1.0013,0,0,1,40,15Z"/><path d="M32,31h8a1,1,0,0,0,0-2H32a1,1,0,0,0,0,2Z"/><path d="M46,29H44a1,1,0,0,0,0,2h2a1,1,0,0,0,0-2Z"/><path d="M46,33H38a1,1,0,0,0,0,2h8a1,1,0,0,0,0-2Z"/><path d="M32,35h2a1,1,0,0,0,0-2H32a1,1,0,0,0,0,2Z"/><path d="M32,39h8a1,1,0,0,0,0-2H32a1,1,0,0,0,0,2Z"/><path d="M46,37H44a1,1,0,0,0,0,2h2a1,1,0,0,0,0-2Z"/><path d="M46,41H38a1,1,0,0,0,0,2h8a1,1,0,0,0,0-2Z"/><path d="M32,43h2a1,1,0,0,0,0-2H32a1,1,0,0,0,0,2Z"/></g></svg>
