<svg id="Layer_1" enable-background="new 0 0 1600 1600" height="512" viewBox="0 0 1600 1600" width="512" xmlns="http://www.w3.org/2000/svg"><g fill="rgb(0,0,0)"><path d="m1478.7 1427.8h-1357.4c-49.2 0-89.3-40-89.3-89.3v-1077c0-49.2 40-89.3 89.3-89.3h1357.5c49.2 0 89.3 40 89.3 89.3v1077c-.1 49.2-40.2 89.3-89.4 89.3zm-1357.4-1207.6c-22.8 0-41.3 18.5-41.3 41.3v1077c0 22.8 18.5 41.3 41.3 41.3h1357.5c22.8 0 41.3-18.5 41.3-41.3v-1077c0-22.8-18.5-41.3-41.3-41.3z"/><path d="m1544 435h-1488c-13.3 0-24-10.7-24-24s10.7-24 24-24h1488c13.3 0 24 10.7 24 24s-10.7 24-24 24z"/><path d="m1397 327.6h-649.3c-13.3 0-24-10.7-24-24s10.7-24 24-24h649.3c13.3 0 24 10.7 24 24s-10.7 24-24 24z"/><g><circle cx="235.1" cy="303.6" r="32.1"/><circle cx="369.4" cy="303.6" r="32.1"/><circle cx="503.7" cy="303.6" r="32.1"/></g><g><path d="m1414 867.4h-1228c-13.3 0-24-10.7-24-24v-293.3c0-13.3 10.7-24 24-24h1228c13.3 0 24 10.7 24 24v293.3c0 13.3-10.7 24-24 24zm-1204-48h1180v-245.3h-1180z"/><path d="m1414 1288.6h-473.9c-13.3 0-24-10.7-24-24v-293.3c0-13.3 10.7-24 24-24h473.9c13.3 0 24 10.7 24 24v293.3c0 13.3-10.7 24-24 24zm-449.9-48h425.9v-245.3h-425.9z"/><g><path d="m812.7 1012.9h-197.3c-13.3 0-24-10.7-24-24s10.7-24 24-24h197.3c13.3 0 24 10.7 24 24s-10.8 24-24 24z"/><path d="m531.9 1012.9h-345.9c-13.3 0-24-10.7-24-24s10.7-24 24-24h345.9c13.3 0 24 10.7 24 24s-10.8 24-24 24z"/><path d="m812.7 1142h-390.3c-13.3 0-24-10.7-24-24s10.7-24 24-24h390.2c13.3 0 24 10.7 24 24s-10.7 24-23.9 24z"/><path d="m337.5 1142h-151.5c-13.3 0-24-10.7-24-24s10.7-24 24-24h151.5c13.3 0 24 10.7 24 24s-10.8 24-24 24z"/><path d="m812.7 1271.1h-144c-13.3 0-24-10.7-24-24s10.7-24 24-24h144c13.3 0 24 10.7 24 24s-10.8 24-24 24z"/><path d="m572.2 1271.1h-386.2c-13.3 0-24-10.7-24-24s10.7-24 24-24h386.2c13.3 0 24 10.7 24 24s-10.7 24-24 24z"/></g></g></g></svg>